<?xml version="1.0" encoding="utf-8"?>
<svg version="1.1" id="Layer_1"
xmlns="http://www.w3.org/2000/svg"
xmlns:xlink="http://www.w3.org/1999/xlink"
width="550px" height="400px"
xml:space="preserve">
<g id="PathID_29" transform="matrix(2.60787, 0, 0, 1.32287, 6.35, 143.75)" opacity="1">
<path style="fill:#248451;fill-opacity:1" d="M64.65 14.4Q65.4 17.9 64.5 21.65L63.45 25.7L61.85 31.2L62.65 31.45L59.95 39.95L56.75 49.5L53.4 58.85L50.2 66.65L47.55 71.8Q44.6 76.15 40.75 78.3Q38.25 79.7 35.3 80.2Q35.7 84.7 35.7 88.85Q35.65 95.9 34.7 101.1Q33.7 106.35 32.3 110.35L29.45 117.5Q27.95 120.75 27.05 123.55Q26.1 126.4 26.05 129.45Q26.1 133.45 27.3 136.5Q28.5 139.55 30.6 141.65Q32.65 143.7 35.2 144.7Q37.75 145.8 40.45 145.8Q43.1 145.8 45.65 144.75Q48.2 143.7 50.3 141.55Q52.35 139.45 53.6 136.2Q54.85 132.9 54.9 128.45Q54.9 126.35 54.2 123.4L52.5 116.85L51 110.95L49.8 105.05Q49.3 102.15 49.3 99.55Q49.3 96.15 50.4 93.7Q51.45 91.15 53.25 89.55Q55.1 87.95 57.35 87.15Q59.25 86.45 61.25 86.4Q61.55 84.3 62.55 82.55Q63.95 80.2 66.3 78.8Q68.7 77.4 71.6 77.4Q74.5 77.4 76.9 78.8Q79.25 80.2 80.65 82.55Q82.05 84.95 82.1 87.85Q82.05 90.7 80.75 92.95Q79.45 95.25 77.25 96.65Q75.05 98.1 72.3 98.3L72.3 95Q74.15 94.8 75.6 93.8Q77.05 92.85 77.9 91.3Q78.75 89.75 78.75 87.85Q78.75 85.85 77.8 84.25Q76.8 82.65 75.2 81.7Q73.6 80.75 71.6 80.7Q69.6 80.7 68 81.7Q66.4 82.65 65.45 84.25Q64.5 85.85 64.45 87.85Q64.45 89.75 65.35 91.3Q66.2 92.85 67.65 93.8Q69.1 94.8 70.95 95L70.95 98.3Q68.15 98.1 66 96.65Q63.8 95.25 62.45 92.95L61.5 90.55Q59.7 90.6 57.95 91.4Q56.05 92.3 54.8 94.3Q53.5 96.25 53.5 99.55Q53.5 101.9 53.95 104.6L55.1 110.15L56.55 115.75L58.35 122.75Q59.05 125.95 59.1 128.45Q59.05 134 57.45 138.05Q55.85 142.1 53.15 144.75Q50.45 147.4 47.15 148.7Q43.85 150 40.45 150Q36.95 150 33.65 148.65Q30.35 147.35 27.7 144.75Q25.05 142.2 23.45 138.35Q21.9 134.5 21.85 129.45Q21.9 125.7 23 122.45Q24.1 119.15 25.6 115.85L28.35 108.95Q29.7 105.2 30.6 100.3Q31.5 95.45 31.5 88.85Q31.5 84.8 31.1 80.35Q27.35 80 24.2 78.25Q20.4 76.15 17.4 71.8Q16.3 70.15 14.9 67L11.85 59.55L8.65 50.7L5.5 41.55L2.85 33.2L6.05 32.2L3.65 32.9L6.9 31.95L9.8 41.15L12.95 50.35L16 58.65L18.75 65.3L20.9 69.45Q23 72.45 25.15 73.9Q27.3 75.35 29.3 75.8L32.65 76.2L32.9 76.2L35.65 75.8Q37.65 75.35 39.85 73.9Q42 72.45 44.05 69.45L46.3 65.15L49.15 58.2L52.35 49.4L55.6 39.8L58.65 30.2L59.4 30.45L61 25.05L62.05 21.1Q62.8 17.9 62.2 14.95Q61.65 11.95 59.8 9.65Q57.95 7.35 55.3 6.15Q53.9 5.5 52.35 5.2L51.55 6.35Q50.5 7.45 48.9 7.5L46.85 7.5Q45.2 7.45 44.15 6.35Q43.1 5.3 43.1 3.75Q43.1 2.15 44.15 1.05Q45.2 0 46.85 0L48.9 0Q50.5 0 51.55 1.05Q52.2 1.75 52.5 2.65Q54.55 3 56.4 3.85Q59.6 5.35 61.8 8.05Q63.95 10.85 64.65 14.4M3.65 32.9L1.7 26.4L0.45 21.65Q-0.4 17.9 0.3 14.4Q1 10.9 3.2 8.05Q5.4 5.35 8.6 3.85Q10.4 3 12.45 2.65Q12.7 1.75 13.4 1.05Q14.45 0 16.05 0L18.1 0Q19.7 0 20.75 1.05Q21.85 2.15 21.85 3.75Q21.85 5.3 20.75 6.35Q19.7 7.45 18.1 7.5L16.05 7.5Q14.45 7.45 13.4 6.35L12.6 5.2Q11.05 5.5 9.65 6.15Q7 7.35 5.2 9.65Q3.35 11.95 2.75 14.95Q2.2 17.9 2.9 21.1L4.15 25.75L6.05 32.2M32.75 80.4L32.5 80.4L32.4 80.4L32.75 80.7L32.75 80.4M76.65 84.95Q77.4 86.25 77.4 87.85Q77.4 89.45 76.65 90.8Q75.85 92.1 74.55 92.9Q73.2 93.65 71.6 93.7Q70 93.65 68.7 92.9Q67.4 92.1 66.6 90.8Q65.85 89.5 65.8 87.85Q65.8 86.25 66.6 84.95Q67.4 83.65 68.7 82.85Q70 82.1 71.6 82.05Q73.2 82.05 74.55 82.85Q75.85 83.65 76.65 84.95" />
</g>
<g id="PathID_30" transform="matrix(2.60787, 0, 0, 1.32287, 6.35, 143.75)" opacity="1">
</g>
<g id="PathID_31" transform="matrix(2.3539, 0, 0, 2.3539, 36.85, 64.65)" opacity="1">
<path style="fill:#F4002B;fill-opacity:1" d="M42.9 17.8L42.5 17.4Q41.55 16.6 40.15 16.6L30.3 16.6Q28.6 16.6 27.55 17.8Q26.45 18.95 26.55 20.6L26.95 26.5Q27.05 28.25 28.35 29.45Q29.65 30.65 31.35 30.65L39.1 30.65Q40.85 30.65 42.15 29.45L42.5 29.1Q43.45 27.95 43.55 26.5L43.9 20.6Q44 18.95 42.9 17.8M40.75 14.45Q41.7 14.5 42.5 14.85Q43.65 15.3 44.55 16.25Q46.3 18.15 46.15 20.75L45.75 26.65Q45.6 28.8 44.2 30.45Q43.45 31.35 42.5 31.9L40.75 32.65L40.75 56.75Q40.75 58.45 39.55 59.7Q38.35 60.9 36.65 60.9L9.5 60.9Q7.8 60.9 6.6 59.7Q5.4 58.45 5.4 56.75L5.4 32.65Q3.35 32.1 1.95 30.45Q0.5 28.75 0.4 26.65L0 20.75Q-0.15 18.1 1.6 16.25Q3.15 14.6 5.4 14.45L5.4 4.1Q5.4 2.4 6.6 1.2Q7.8 0 9.5 0L36.65 0Q38.35 0 39.55 1.2Q40.75 2.4 40.75 4.1L40.75 14.45M27.4 2.95L18.75 2.95Q18.25 2.95 18.25 3.45Q18.25 3.95 18.75 3.95L27.4 3.95Q27.9 3.95 27.9 3.45Q27.9 2.95 27.4 2.95M21.65 22.95L21.4 26.65Q21.25 29.25 19.3 31.05Q17.35 32.9 14.8 32.9L8.25 32.9L8.25 53.25L37.9 53.25L37.9 32.9L31.35 32.9Q28.75 32.9 26.85 31.05Q24.9 29.25 24.7 26.65L24.5 22.95L21.65 22.95M30.3 14.4L37.9 14.4L37.9 6.55L8.25 6.55L8.25 14.4L15.8 14.4Q18.45 14.4 20.2 16.25Q21.75 17.95 21.75 20.2L24.35 20.2Q24.45 17.95 25.95 16.25Q27.65 14.4 30.3 14.4M3.2 17.8Q2.1 18.95 2.2 20.6L2.6 26.5Q2.7 28.25 4 29.45Q5.3 30.65 7 30.65L14.75 30.65Q16.5 30.65 17.8 29.45Q19.1 28.2 19.2 26.5L19.55 20.6Q19.7 18.95 18.55 17.8Q17.5 16.6 15.8 16.6L5.95 16.6Q4.25 16.6 3.2 17.8M14.65 41.95L31.5 41.95L31.5 44.35L14.65 44.35L14.65 41.95M23.05 54.7Q22.25 54.7 21.6 55.3Q21 55.95 21 56.75Q21 57.6 21.6 58.2Q22.2 58.8 23.05 58.8Q23.9 58.8 24.5 58.2Q25.1 57.6 25.1 56.75Q25.1 55.9 24.5 55.3Q23.9 54.7 23.05 54.7" />
</g>
<g id="PathID_32" transform="matrix(2.3539, 0, 0, 2.3539, 36.85, 64.65)" opacity="1">
</g>
<g id="PathID_33" transform="matrix(0.351835, -0.00679576, 0, 0.3519, 395.6, 195.1)" opacity="1">
<path style="fill:#F4002B;fill-opacity:1" d="M149.55 31.8Q151.2 45 145.15 58.8Q141.55 66.95 137.4 73.25Q133.8 78.7 127.95 85.8L123.35 91.05L115.8 100.25L114.1 101.9L110.55 106.1L105.75 111.55L105.55 111.75Q100.3 117.4 95.05 122.25L85.4 130.4Q75.55 137.7 61.1 128.7L42.45 112.4L41.85 111.55L41.65 111.55L40.4 110.1L38.9 108.4L36.6 105.9L30.95 100.25L31.15 100.25L27.8 96.5L26.35 94.8Q19.85 87.5 16.1 82.25Q4.15 65.7 1 50Q-2.8 31.2 7.5 16.55Q15.25 5.45 26.35 2.7L27.8 2.3Q30.75 1.45 34.1 1.45Q43.95 1.45 54.4 6.9Q64.9 12.55 72.85 22.4L78.3 16.95Q84.35 10.45 88.15 7.75Q100.9 -0.45 114.1 0L114.55 0Q128.15 0.4 138 9.85Q147.45 18.6 149.55 31.8M98.2 60.25L82.3 60.25L82.3 43.95Q82.3 39.95 79.55 38.7Q77.45 37.45 72.85 37.45Q68.25 37.45 66.15 38.7Q63.4 39.95 63.4 43.95L63.4 60.25L47.7 60.25Q44.15 60.25 42.9 63.2Q41.85 65.3 41.85 70.1Q41.85 74.9 42.9 77.25Q44.15 79.95 47.7 79.95L63.4 79.95L63.4 96.5Q63.4 100.45 66.15 101.7Q68.25 102.75 72.85 102.75Q77.45 102.75 79.55 101.7Q82.3 100.45 82.3 96.5L82.3 79.95L98.2 79.95Q101.75 79.95 103 77.25Q103.85 74.9 103.85 70.1Q103.85 65.3 103 63.2Q101.75 60.25 98.2 60.25" />
</g>
<g id="PathID_34" transform="matrix(0.351835, -0.00679576, 0, 0.3519, 395.6, 195.1)" opacity="1">
</g>
<g id="PathID_35" transform="matrix(4.57902, 0, -0.0398251, 4.57884, 163.15, 47.65)" opacity="1">
<path style="fill:#248451;fill-opacity:1" d="M18.9 8.15L18.9 25.65L14.85 25.65L14.85 18.25L7.75 18.25L7.75 25.65L3.65 25.65L3.65 8.15L7.75 8.15L7.75 15.45L14.85 15.45L14.85 8.15L18.9 8.15" />
</g>
<g id="PathID_36" transform="matrix(4.57902, 0, -0.0398251, 4.57884, 163.15, 47.65)" opacity="1">
</g>
<g id="PathID_37" transform="matrix(4.57902, 0, -0.0398251, 4.57884, 163.15, 47.65)" opacity="1">
<path style="fill:#F4002B;fill-opacity:1" d="M29.65 17.9Q29.65 17.45 29.5 17.05Q29.4 16.65 29.15 16.3Q28.9 15.95 28.45 15.8Q28.05 15.55 27.4 15.55Q26.35 15.55 25.75 16.2Q25.15 16.8 25 17.9L29.65 17.9M24.95 20.05Q25.15 21.65 25.9 22.35Q26.65 23.05 27.85 23.05Q28.5 23.05 28.95 22.9Q29.45 22.75 29.8 22.55L30.5 22.2Q30.8 22.05 31.15 22.05Q31.55 22.05 31.8 22.35L32.9 23.7Q32.3 24.35 31.6 24.8Q30.95 25.2 30.25 25.4Q29.55 25.65 28.85 25.75L27.5 25.85Q26.25 25.85 25.1 25.4Q23.95 24.95 23.05 24.15Q22.2 23.3 21.7 22.05Q21.2 20.8 21.2 19.15Q21.2 17.9 21.65 16.8Q22.05 15.65 22.85 14.8Q23.65 14 24.8 13.5Q25.9 13 27.35 13Q28.6 13 29.65 13.4Q30.65 13.75 31.4 14.5Q32.15 15.25 32.55 16.3Q32.95 17.35 32.95 18.7L32.9 19.4Q32.9 19.65 32.8 19.8Q32.7 19.95 32.55 20L32.1 20.05L24.95 20.05" />
</g>
<g id="PathID_38" transform="matrix(4.57902, 0, -0.0398251, 4.57884, 163.15, 47.65)" opacity="1">
</g>
<g id="PathID_39" transform="matrix(4.57902, 0, -0.0398251, 4.57884, 163.15, 47.65)" opacity="1">
<path style="fill:#F4002B;fill-opacity:1" d="M38.5 7.65L38.5 25.65L34.75 25.65L34.75 7.65L38.5 7.65" />
</g>
<g id="PathID_40" transform="matrix(4.57902, 0, -0.0398251, 4.57884, 163.15, 47.65)" opacity="1">
</g>
<g id="PathID_41" transform="matrix(4.57902, 0, -0.0398251, 4.57884, 163.15, 47.65)" opacity="1">
<path style="fill:#F4002B;fill-opacity:1" d="M44.7 7.65L44.7 25.65L40.95 25.65L40.95 7.65L44.7 7.65" />
</g>
<g id="PathID_42" transform="matrix(4.57902, 0, -0.0398251, 4.57884, 163.15, 47.65)" opacity="1">
</g>
<g id="PathID_43" transform="matrix(4.57902, 0, -0.0398251, 4.57884, 163.15, 47.65)" opacity="1">
<path style="fill:#F4002B;fill-opacity:1" d="M52.9 13Q54.3 13 55.5 13.45Q56.65 13.9 57.5 14.75Q58.3 15.55 58.75 16.75Q59.25 17.9 59.25 19.4Q59.25 20.85 58.75 22.05Q58.3 23.25 57.5 24.1Q56.65 24.9 55.5 25.4Q54.3 25.85 52.9 25.85Q51.5 25.85 50.3 25.4Q49.15 24.9 48.3 24.1Q47.45 23.25 47 22.05Q46.55 20.85 46.55 19.4Q46.55 17.9 47 16.75Q47.45 15.55 48.3 14.75Q49.15 13.9 50.3 13.45Q51.5 13 52.9 13M52.9 23.05Q54.2 23.05 54.8 22.2Q55.4 21.25 55.4 19.4Q55.4 17.55 54.8 16.65Q54.2 15.75 52.9 15.75Q51.6 15.75 50.95 16.65Q50.35 17.55 50.35 19.4Q50.35 21.25 50.95 22.2Q51.6 23.05 52.9 23.05" />
</g>
<g id="PathID_44" transform="matrix(4.57902, 0, -0.0398251, 4.57884, 163.15, 47.65)" opacity="1">
</g>
<g id="PathID_45" transform="matrix(4.26222, 0, 0, 4.26222, 162.9, 134)" opacity="1">
<path style="fill:#248451;fill-opacity:1" d="M19.55 16.9Q19.55 18.8 18.85 20.4Q18.2 22 17 23.15Q15.85 24.35 14.15 25Q12.5 25.65 10.45 25.65L3.65 25.65L3.65 8.15L10.45 8.15Q12.5 8.15 14.15 8.8Q15.85 9.5 17 10.65Q18.2 11.8 18.85 13.4Q19.55 15 19.55 16.9M15.35 16.9Q15.35 15.6 15.05 14.55Q14.7 13.5 14.05 12.8Q13.45 12.05 12.5 11.7Q11.6 11.3 10.45 11.3L7.75 11.3L7.75 22.5L10.45 22.5Q11.6 22.5 12.5 22.15Q13.45 21.75 14.05 21Q14.7 20.3 15.05 19.25Q15.35 18.2 15.35 16.9" />
</g>
<g id="PathID_46" transform="matrix(4.26222, 0, 0, 4.26222, 162.9, 134)" opacity="1">
</g>
<g id="PathID_47" transform="matrix(4.26222, 0, 0, 4.26222, 162.9, 134)" opacity="1">
<path style="fill:#F4002B;fill-opacity:1" d="M27.2 13Q28.6 13 29.8 13.45Q30.95 13.9 31.8 14.75Q32.6 15.55 33.05 16.75Q33.55 17.9 33.55 19.4Q33.55 20.85 33.05 22.05Q32.6 23.25 31.8 24.1Q30.95 24.9 29.8 25.4Q28.6 25.85 27.2 25.85Q25.8 25.85 24.6 25.4Q23.45 24.9 22.6 24.1Q21.75 23.25 21.3 22.05Q20.85 20.85 20.85 19.4Q20.85 17.9 21.3 16.75Q21.75 15.55 22.6 14.75Q23.45 13.9 24.6 13.45Q25.8 13 27.2 13M27.2 23.05Q28.5 23.05 29.1 22.2Q29.7 21.25 29.7 19.4Q29.7 17.55 29.1 16.65Q28.5 15.75 27.2 15.75Q25.9 15.75 25.25 16.65Q24.65 17.55 24.65 19.4Q24.65 21.25 25.25 22.2Q25.9 23.05 27.2 23.05" />
</g>
<g id="PathID_48" transform="matrix(4.26222, 0, 0, 4.26222, 162.9, 134)" opacity="1">
</g>
<g id="PathID_49" transform="matrix(4.26222, 0, 0, 4.26222, 162.9, 134)" opacity="1">
<path style="fill:#F4002B;fill-opacity:1" d="M44.5 16.15L44.2 16.45Q44.05 16.6 43.75 16.6Q43.5 16.6 43.25 16.45L42.75 16.15L42.1 15.9Q41.75 15.75 41.2 15.75Q40.5 15.75 40 16Q39.5 16.25 39.15 16.7Q38.85 17.2 38.7 17.85Q38.55 18.5 38.55 19.4Q38.55 21.15 39.2 22.15Q39.9 23.1 41.15 23.1Q41.8 23.1 42.15 22.95L42.8 22.6L43.25 22.2Q43.5 22.05 43.85 22.05Q44.3 22.05 44.5 22.35L45.6 23.7Q45 24.35 44.4 24.8Q43.75 25.2 43.1 25.4Q42.4 25.65 41.75 25.75L40.45 25.85Q39.3 25.85 38.25 25.4Q37.2 24.95 36.4 24.15Q35.65 23.35 35.2 22.15Q34.75 20.9 34.75 19.4Q34.75 18.05 35.15 16.9Q35.55 15.7 36.3 14.85Q37.1 14 38.25 13.5Q39.4 13 40.95 13Q42.4 13 43.5 13.45Q44.65 13.95 45.5 14.85L44.5 16.15" />
</g>
<g id="PathID_50" transform="matrix(4.26222, 0, 0, 4.26222, 162.9, 134)" opacity="1">
</g>
<g id="PathID_51" transform="matrix(4.26222, 0, 0, 4.26222, 162.9, 134)" opacity="1">
<path style="fill:#F4002B;fill-opacity:1" d="M51.45 25.85Q50.6 25.85 49.9 25.6Q49.2 25.3 48.75 24.85Q48.3 24.35 48.05 23.7Q47.85 23 47.85 22.2L47.85 15.75L46.8 15.75Q46.5 15.75 46.25 15.55Q46.1 15.4 46.1 15.05L46.1 13.6L48.05 13.2L48.8 10.15Q48.95 9.55 49.6 9.55L51.55 9.55L51.55 13.25L54.65 13.25L54.65 15.75L51.55 15.75L51.55 21.95Q51.55 22.35 51.75 22.65Q51.95 22.95 52.35 22.95L52.7 22.9L52.95 22.8L53.15 22.7L53.35 22.65Q53.5 22.65 53.6 22.75L53.85 23L54.95 24.75Q54.25 25.3 53.3 25.6Q52.45 25.85 51.45 25.85" />
</g>
<g id="PathID_52" transform="matrix(4.26222, 0, 0, 4.26222, 162.9, 134)" opacity="1">
</g>
<g id="PathID_53" transform="matrix(4.26222, 0, 0, 4.26222, 162.9, 134)" opacity="1">
<path style="fill:#F4002B;fill-opacity:1" d="M70.8 15.1Q71.35 14.1 72.1 13.55Q72.85 12.95 73.85 12.95Q74.7 12.95 75.2 13.35L75 16.1Q74.9 16.35 74.75 16.45Q74.65 16.55 74.4 16.55L74.15 16.55L73.85 16.5L73.5 16.45L73.2 16.45Q72.35 16.45 71.85 16.9Q71.35 17.3 71.05 18.1L71.05 25.65L67.3 25.65L67.3 13.2L69.5 13.2L70 13.25L70.3 13.4Q70.45 13.5 70.5 13.65L70.6 14.05L70.8 15.1" />
</g>
<g id="PathID_54" transform="matrix(4.26222, 0, 0, 4.26222, 162.9, 134)" opacity="1">
</g>
<g id="PathID_55" transform="matrix(4.26222, 0, 0, 4.26222, 162.9, 134)" opacity="1">
<path style="fill:#F4002B;fill-opacity:1" d="M85.75 14.7Q85.75 15.05 85.6 15.45Q85.45 15.8 85.25 16L80.05 22.9L85.6 22.9L85.6 25.65L75.75 25.65L75.75 24.15Q75.75 23.9 75.9 23.55Q76 23.2 76.25 22.9L81.5 15.95L76.1 15.95L76.1 13.2L85.75 13.2L85.75 14.7" />
</g>
<g id="PathID_56" transform="matrix(4.26222, 0, 0, 4.26222, 162.9, 134)" opacity="1">
</g>
</svg>
